<svg width="560" height="576" viewBox="0 0 560 576" fill="none" xmlns="http://www.w3.org/2000/svg">
<rect y="488.044" width="178.016" height="59.5585" rx="20" transform="rotate(-62.5991 0 488.044)" fill="#97AFC5"></rect>
<rect x="559.158" y="269.351" width="178.016" height="59.5585" rx="20" transform="rotate(139.593 559.158 269.351)" fill="#97AFC5"></rect>
<path d="M42.0887 380.937C43.9965 387.629 50.9674 391.507 57.6587 389.599L122.982 370.975C129.674 369.067 133.552 362.097 131.644 355.405V355.405C124.967 331.985 100.569 318.413 77.149 325.09L72.4042 326.442C48.9844 333.119 35.4118 357.518 42.0887 380.937V380.937Z" fill="#C2DBF2"></path>
<path d="M78.4242 365.645C75.243 315.488 113.324 272.248 163.482 269.067L357.093 256.787C407.25 253.606 450.489 291.687 453.67 341.844L455.063 363.8C461.635 467.422 382.961 556.751 279.34 563.323V563.323C175.719 569.896 86.389 491.222 79.8168 387.601L78.4242 365.645Z" fill="#D7E7F9"></path>
<path d="M430.088 280.095C435.625 277.281 442.395 279.488 445.209 285.025L477.211 347.991C480.025 353.528 477.818 360.298 472.281 363.112V363.112C452.903 372.961 429.209 365.236 419.359 345.857L412.834 333.017C402.984 313.639 410.709 289.945 430.088 280.095V280.095Z" fill="#C2DBF2"></path>
<path d="M410.108 271.95C410.982 285.729 345.349 301.107 263.514 306.298C181.678 311.488 114.628 304.526 113.754 290.746C112.88 276.967 178.513 261.589 260.349 256.398C342.184 251.208 409.234 258.17 410.108 271.95Z" fill="#C2DBF2"></path>
<path d="M314.914 445.804L311.788 443.051C322.596 423.426 318.783 398.21 301.328 382.837C281.137 365.056 250.147 367.021 232.365 387.211C214.583 407.402 216.549 438.392 236.739 456.174C254.194 471.547 279.69 472.143 297.792 458.943L300.918 461.696L305.086 465.367C309.515 469.268 316.252 468.84 320.03 464.419C323.931 459.99 323.504 453.253 319.083 449.475L314.914 445.804ZM250.735 440.282C239.272 430.187 238.162 412.67 248.265 401.33C258.36 389.867 275.877 388.756 287.217 398.859C295.814 406.431 298.528 418.188 295.122 428.489C293.985 431.882 292.219 435.068 289.688 437.812C287.164 440.677 284.226 442.831 281.126 444.381C271.461 449.052 259.333 447.854 250.735 440.282Z" fill="#6366F1"></path>
<rect x="72.3418" y="11.1484" width="400" height="238" rx="119" transform="rotate(4.68347 72.3418 11.1484)" fill="#D7E7F9"></rect>
<path d="M85.5522 74.4382C93.6254 75.0996 99.6338 82.1803 98.9724 90.2534L91.9776 175.634C91.3162 183.707 84.2355 189.716 76.1624 189.054V189.054C47.9064 186.739 26.877 161.957 29.1918 133.701L30.1989 121.409C32.5137 93.1528 57.2963 72.1233 85.5522 74.4382V74.4382Z" fill="#C2DBF2"></path>
<path d="M438.282 218.721C430.209 218.06 424.2 210.979 424.862 202.906L431.856 117.525C432.518 109.452 439.598 103.444 447.672 104.105V104.105C475.928 106.42 496.957 131.202 494.642 159.458L493.635 171.75C491.32 200.006 466.538 221.036 438.282 218.721V218.721Z" fill="#C2DBF2"></path>
<rect x="118.582" y="59.084" width="300" height="150" rx="75" transform="rotate(4.68347 118.582 59.084)" fill="#2F445B"></rect>
<circle cx="336.706" cy="152.205" r="20" transform="rotate(4.68347 336.706 152.205)" fill="#6366F1"></circle>
<circle cx="186.212" cy="139.876" r="20" transform="rotate(4.68347 186.212 139.876)" fill="#6366F1"></circle>
<path d="M204.5 14.6177C205.161 6.54456 212.242 0.53616 220.315 1.19755L326.625 9.90699C334.699 10.5684 340.707 17.6491 340.046 25.7222V25.7222C337.731 53.9782 312.948 75.0076 284.692 72.6927L251.47 69.971C223.214 67.6562 202.185 42.8736 204.5 14.6177V14.6177Z" fill="#C2DBF2"></path>
</svg>